<mxfile host="app.diagrams.net" modified="2024-06-14T05:48:53.022Z" agent="Mozilla/5.0 (Windows NT 10.0; Win64; x64) AppleWebKit/537.36 (KHTML, like Gecko) Chrome/126.0.0.0 Safari/537.36" etag="wzvJj_FVbUFma2Sa1AjW" version="24.5.4" type="device">
  <diagram name="Page-1" id="PvIMbYLGk_rI9HT6wfRN">
    <mxGraphModel dx="2284" dy="746" grid="1" gridSize="10" guides="1" tooltips="1" connect="1" arrows="1" fold="1" page="1" pageScale="1" pageWidth="850" pageHeight="1100" math="0" shadow="0">
      <root>
        <mxCell id="0" />
        <mxCell id="1" parent="0" />
        <mxCell id="FbWt6x-5vPqJLpbBBlVs-1" value="Customers" style="swimlane;whiteSpace=wrap;html=1;" parent="1" vertex="1">
          <mxGeometry x="40" y="40" width="200" height="200" as="geometry" />
        </mxCell>
        <mxCell id="FbWt6x-5vPqJLpbBBlVs-2" value="Contracts" style="swimlane;whiteSpace=wrap;html=1;" parent="1" vertex="1">
          <mxGeometry x="50" y="520" width="200" height="200" as="geometry" />
        </mxCell>
        <mxCell id="FbWt6x-5vPqJLpbBBlVs-30" value="Id&lt;div&gt;StartDate&lt;/div&gt;&lt;div&gt;EndDate&lt;/div&gt;&lt;div&gt;Type&lt;/div&gt;&lt;div&gt;ContractTypeId&lt;/div&gt;" style="text;html=1;align=center;verticalAlign=middle;resizable=0;points=[];autosize=1;strokeColor=none;fillColor=none;" parent="FbWt6x-5vPqJLpbBBlVs-2" vertex="1">
          <mxGeometry x="35" y="50" width="100" height="90" as="geometry" />
        </mxCell>
        <mxCell id="FbWt6x-5vPqJLpbBBlVs-3" value="Bills" style="swimlane;whiteSpace=wrap;html=1;" parent="1" vertex="1">
          <mxGeometry x="375" y="520" width="200" height="200" as="geometry" />
        </mxCell>
        <mxCell id="FbWt6x-5vPqJLpbBBlVs-31" value="Id&lt;div&gt;Amount&lt;/div&gt;&lt;div&gt;Deadline&lt;/div&gt;&lt;div&gt;IsPaid&lt;/div&gt;&lt;div&gt;ContractId&lt;/div&gt;" style="text;html=1;align=center;verticalAlign=middle;resizable=0;points=[];autosize=1;strokeColor=none;fillColor=none;" parent="FbWt6x-5vPqJLpbBBlVs-3" vertex="1">
          <mxGeometry x="50" y="55" width="80" height="90" as="geometry" />
        </mxCell>
        <mxCell id="FbWt6x-5vPqJLpbBBlVs-4" value="Addresses" style="swimlane;whiteSpace=wrap;html=1;" parent="1" vertex="1">
          <mxGeometry x="380" y="40" width="200" height="200" as="geometry" />
        </mxCell>
        <mxCell id="FbWt6x-5vPqJLpbBBlVs-27" value="Id&lt;div&gt;StreetName&lt;/div&gt;&lt;div&gt;StreetNumber&lt;/div&gt;&lt;div&gt;City&lt;/div&gt;&lt;div&gt;CustomerId&lt;/div&gt;" style="text;html=1;align=center;verticalAlign=middle;resizable=0;points=[];autosize=1;strokeColor=none;fillColor=none;" parent="FbWt6x-5vPqJLpbBBlVs-4" vertex="1">
          <mxGeometry x="50" y="55" width="100" height="90" as="geometry" />
        </mxCell>
        <mxCell id="FbWt6x-5vPqJLpbBBlVs-12" value="1" style="text;html=1;align=center;verticalAlign=middle;resizable=0;points=[];autosize=1;strokeColor=none;fillColor=none;" parent="1" vertex="1">
          <mxGeometry x="235" y="108" width="30" height="30" as="geometry" />
        </mxCell>
        <mxCell id="FbWt6x-5vPqJLpbBBlVs-13" value="*" style="text;html=1;align=center;verticalAlign=middle;resizable=0;points=[];autosize=1;strokeColor=none;fillColor=none;" parent="1" vertex="1">
          <mxGeometry x="345" y="108" width="30" height="30" as="geometry" />
        </mxCell>
        <mxCell id="FbWt6x-5vPqJLpbBBlVs-14" value="" style="endArrow=none;html=1;rounded=0;exitX=1;exitY=0.5;exitDx=0;exitDy=0;" parent="1" source="FbWt6x-5vPqJLpbBBlVs-1" edge="1">
          <mxGeometry width="50" height="50" relative="1" as="geometry">
            <mxPoint x="240" y="160" as="sourcePoint" />
            <mxPoint x="380" y="140" as="targetPoint" />
          </mxGeometry>
        </mxCell>
        <mxCell id="FbWt6x-5vPqJLpbBBlVs-17" value="" style="endArrow=none;html=1;rounded=0;exitX=1;exitY=0.5;exitDx=0;exitDy=0;entryX=0;entryY=0.5;entryDx=0;entryDy=0;" parent="1" source="FbWt6x-5vPqJLpbBBlVs-2" target="FbWt6x-5vPqJLpbBBlVs-3" edge="1">
          <mxGeometry width="50" height="50" relative="1" as="geometry">
            <mxPoint x="340" y="410" as="sourcePoint" />
            <mxPoint x="390" y="360" as="targetPoint" />
          </mxGeometry>
        </mxCell>
        <mxCell id="FbWt6x-5vPqJLpbBBlVs-18" value="Customers_Contracts" style="swimlane;whiteSpace=wrap;html=1;" parent="1" vertex="1">
          <mxGeometry x="40" y="280" width="200" height="200" as="geometry" />
        </mxCell>
        <mxCell id="FbWt6x-5vPqJLpbBBlVs-19" value="" style="endArrow=none;html=1;rounded=0;exitX=0.5;exitY=0;exitDx=0;exitDy=0;entryX=0.5;entryY=1;entryDx=0;entryDy=0;" parent="1" source="FbWt6x-5vPqJLpbBBlVs-18" target="FbWt6x-5vPqJLpbBBlVs-1" edge="1">
          <mxGeometry width="50" height="50" relative="1" as="geometry">
            <mxPoint x="340" y="410" as="sourcePoint" />
            <mxPoint x="390" y="360" as="targetPoint" />
          </mxGeometry>
        </mxCell>
        <mxCell id="FbWt6x-5vPqJLpbBBlVs-20" value="" style="endArrow=none;html=1;rounded=0;exitX=0.45;exitY=0;exitDx=0;exitDy=0;entryX=0.5;entryY=1;entryDx=0;entryDy=0;exitPerimeter=0;" parent="1" source="FbWt6x-5vPqJLpbBBlVs-2" target="FbWt6x-5vPqJLpbBBlVs-18" edge="1">
          <mxGeometry width="50" height="50" relative="1" as="geometry">
            <mxPoint x="340" y="410" as="sourcePoint" />
            <mxPoint x="390" y="360" as="targetPoint" />
          </mxGeometry>
        </mxCell>
        <mxCell id="FbWt6x-5vPqJLpbBBlVs-21" value="1" style="text;html=1;align=center;verticalAlign=middle;resizable=0;points=[];autosize=1;strokeColor=none;fillColor=none;" parent="1" vertex="1">
          <mxGeometry x="135" y="238" width="30" height="30" as="geometry" />
        </mxCell>
        <mxCell id="FbWt6x-5vPqJLpbBBlVs-22" value="*" style="text;html=1;align=center;verticalAlign=middle;resizable=0;points=[];autosize=1;strokeColor=none;fillColor=none;" parent="1" vertex="1">
          <mxGeometry x="95" y="258" width="30" height="30" as="geometry" />
        </mxCell>
        <mxCell id="FbWt6x-5vPqJLpbBBlVs-23" value="*" style="text;html=1;align=center;verticalAlign=middle;resizable=0;points=[];autosize=1;strokeColor=none;fillColor=none;" parent="1" vertex="1">
          <mxGeometry x="95" y="478" width="30" height="30" as="geometry" />
        </mxCell>
        <mxCell id="FbWt6x-5vPqJLpbBBlVs-24" value="1" style="text;html=1;align=center;verticalAlign=middle;resizable=0;points=[];autosize=1;strokeColor=none;fillColor=none;" parent="1" vertex="1">
          <mxGeometry x="155" y="498" width="30" height="30" as="geometry" />
        </mxCell>
        <mxCell id="FbWt6x-5vPqJLpbBBlVs-25" value="1" style="text;html=1;align=center;verticalAlign=middle;resizable=0;points=[];autosize=1;strokeColor=none;fillColor=none;" parent="1" vertex="1">
          <mxGeometry x="245" y="588" width="30" height="30" as="geometry" />
        </mxCell>
        <mxCell id="FbWt6x-5vPqJLpbBBlVs-26" value="*" style="text;html=1;align=center;verticalAlign=middle;resizable=0;points=[];autosize=1;strokeColor=none;fillColor=none;" parent="1" vertex="1">
          <mxGeometry x="345" y="588" width="30" height="30" as="geometry" />
        </mxCell>
        <mxCell id="FbWt6x-5vPqJLpbBBlVs-28" value="Id&lt;div&gt;FirstName&lt;/div&gt;&lt;div&gt;LastName&lt;/div&gt;&lt;div&gt;Email&lt;/div&gt;" style="text;html=1;align=center;verticalAlign=middle;resizable=0;points=[];autosize=1;strokeColor=none;fillColor=none;" parent="1" vertex="1">
          <mxGeometry x="80" y="88" width="80" height="70" as="geometry" />
        </mxCell>
        <mxCell id="FbWt6x-5vPqJLpbBBlVs-29" value="Id&lt;div&gt;CustomerId&lt;/div&gt;&lt;div&gt;ContractId&lt;/div&gt;" style="text;html=1;align=center;verticalAlign=middle;resizable=0;points=[];autosize=1;strokeColor=none;fillColor=none;" parent="1" vertex="1">
          <mxGeometry x="85" y="343" width="90" height="60" as="geometry" />
        </mxCell>
        <mxCell id="SmfXBxAHtI4I50UHOaob-1" value="ContractTypes" style="swimlane;whiteSpace=wrap;html=1;" vertex="1" parent="1">
          <mxGeometry x="-260" y="520" width="200" height="200" as="geometry" />
        </mxCell>
        <mxCell id="SmfXBxAHtI4I50UHOaob-2" value="Id&lt;div&gt;Name&lt;/div&gt;" style="text;html=1;align=center;verticalAlign=middle;resizable=0;points=[];autosize=1;strokeColor=none;fillColor=none;" vertex="1" parent="SmfXBxAHtI4I50UHOaob-1">
          <mxGeometry x="55" y="75" width="60" height="40" as="geometry" />
        </mxCell>
        <mxCell id="SmfXBxAHtI4I50UHOaob-3" value="" style="endArrow=none;html=1;rounded=0;exitX=1;exitY=0.5;exitDx=0;exitDy=0;entryX=0;entryY=0.5;entryDx=0;entryDy=0;" edge="1" parent="1" source="SmfXBxAHtI4I50UHOaob-1" target="FbWt6x-5vPqJLpbBBlVs-2">
          <mxGeometry width="50" height="50" relative="1" as="geometry">
            <mxPoint x="400" y="490" as="sourcePoint" />
            <mxPoint x="450" y="440" as="targetPoint" />
          </mxGeometry>
        </mxCell>
        <mxCell id="SmfXBxAHtI4I50UHOaob-4" value="1" style="text;html=1;align=center;verticalAlign=middle;resizable=0;points=[];autosize=1;strokeColor=none;fillColor=none;" vertex="1" parent="1">
          <mxGeometry x="-65" y="588" width="30" height="30" as="geometry" />
        </mxCell>
        <mxCell id="SmfXBxAHtI4I50UHOaob-5" value="*" style="text;html=1;align=center;verticalAlign=middle;resizable=0;points=[];autosize=1;strokeColor=none;fillColor=none;" vertex="1" parent="1">
          <mxGeometry x="25" y="588" width="30" height="30" as="geometry" />
        </mxCell>
        <mxCell id="SmfXBxAHtI4I50UHOaob-10" value="" style="endArrow=none;html=1;rounded=0;fillColor=#f8cecc;strokeColor=#D41811;" edge="1" parent="1">
          <mxGeometry width="50" height="50" relative="1" as="geometry">
            <mxPoint x="70" y="630" as="sourcePoint" />
            <mxPoint x="200" y="630" as="targetPoint" />
          </mxGeometry>
        </mxCell>
      </root>
    </mxGraphModel>
  </diagram>
</mxfile>
